<?xml version="1.0" ?><svg id="Layer_1" style="enable-background:new 0 0 66 66;" version="1.1" viewBox="0 0 66 66" xml:space="preserve" xmlns="http://www.w3.org/2000/svg" xmlns:xlink="http://www.w3.org/1999/xlink"><g><path d="M64.7,29.5l-9.6-8.6V6.5c0-0.5-0.4-1-1-1h-6.8c-0.5,0-1,0.5-1,1v6.4L33.7,1.6c-0.4-0.3-1-0.3-1.3,0l-31,27.9   c-0.3,0.3-0.4,0.7-0.3,1.1C1.2,31,1.6,31.3,2,31.3h7.7v32.4c0,0.5,0.4,1,1,1h44.5c0.5,0,1-0.5,1-1V31.3H64c0.4,0,0.8-0.2,0.9-0.6   C65.1,30.2,65,29.8,64.7,29.5z M54.3,62.6H11.7V31.3h42.5V62.6z M4.6,29.3L33,3.7l13.6,12.2c0.3,0.3,0.7,0.3,1.1,0.2   c0.4-0.2,0.6-0.5,0.6-0.9V7.5h4.8v13.8c0,0.3,0.1,0.6,0.3,0.8l8,7.2H4.6z"/><path d="M40.2,19.3c0,4-3.2,7.2-7.2,7.2c-4,0-7.2-3.2-7.2-7.2s3.2-7.2,7.2-7.2C36.9,12.2,40.2,15.4,40.2,19.3z"/><path d="M44.8,57.4c0,0.9-0.1,2.1-1.1,2.8c-0.4,0.2-0.8,0.3-1.2,0.3c-0.9,0-2-0.5-3.3-1c-1.7-0.7-3.9-1.6-6.1-1.6   c-2.2,0-4.4,0.9-6.1,1.6c-1.9,0.8-3.4,1.4-4.6,0.6c-1-0.6-1.1-1.9-1.1-2.8c0-5.2,5.1-13.3,11.8-13.3C39.7,44.1,44.8,52.2,44.8,57.4   z"/><path d="M31.9,38.1c0,2.6-1.4,4.7-3.2,4.7c-1.8,0-3.2-2-3.2-4.7c0-2.6,1.4-4.7,3.2-4.7C30.5,33.4,31.9,35.4,31.9,38.1z"/><path d="M23.7,42.9c0,2.6-1.4,4.7-3.2,4.7c-1.8,0-3.2-2-3.2-4.7c0-2.6,1.4-4.7,3.2-4.7C22.3,38.2,23.7,40.3,23.7,42.9z"/><path d="M48.7,42.9c0,2.6-1.4,4.7-3.2,4.7c-1.8,0-3.2-2-3.2-4.7c0-2.6,1.4-4.7,3.2-4.7C47.3,38.2,48.7,40.3,48.7,42.9z"/><path d="M40.5,38.1c0,2.6-1.4,4.7-3.2,4.7c-1.8,0-3.2-2-3.2-4.7c0-2.6,1.4-4.7,3.2-4.7C39.1,33.4,40.5,35.4,40.5,38.1z"/><path d="M9.9,16.7c-0.2,0.1-0.4,0.2-0.6,0.2c-0.2,0-0.4-0.1-0.6-0.2C3.8,12.8,1.6,9.8,2,7.4c0,0,0-0.1,0-0.1   c0.3-2.1,2.1-3.6,4.2-3.6c1.1,0,2.2,0.5,3,1.2c0.8-0.8,1.9-1.2,3-1.2c2.1,0,3.9,1.5,4.2,3.6c0,0,0,0.1,0,0.1   C17,9.8,14.8,12.8,9.9,16.7z"/></g></svg>